<svg width="401" height="378" viewBox="0 0 401 378" fill="none" xmlns="http://www.w3.org/2000/svg">
<path d="M208.675 143.054C208.675 143.054 233.057 145.63 239.492 156.207C245.927 166.784 292.028 225.036 292.028 225.036L170.8 224.264C170.8 224.264 164.5 158.147 173.066 144.064C173.145 144.064 174.822 139.343 208.675 143.054Z" fill="#FFB43C"/>
<path d="M192.881 158.443C194.407 160.425 196.344 162.053 198.557 163.215C200.771 164.377 203.21 165.044 205.706 165.172C206.358 165.209 207.011 165.124 207.632 164.923C208.478 164.553 209.198 163.946 209.706 163.175C211.972 160.043 212.074 155.844 211.496 152.031C211.099 149.341 210.363 146.538 208.289 144.745C205.91 142.634 202.455 142.475 199.226 142.339C195.997 142.203 188.7 141.34 187.499 145.256C186.446 148.853 190.785 155.832 192.881 158.443Z" fill="#121212"/>
<path d="M205.899 165.683H205.695C203.131 165.548 200.627 164.858 198.354 163.661C196.081 162.464 194.094 160.788 192.53 158.749C190.264 155.934 185.948 148.887 187.103 145.131C188.259 141.374 194.366 141.613 198.014 141.806H199.328C202.852 141.908 206.228 142.18 208.652 144.336C211.077 146.492 211.689 149.647 212.051 151.917C212.788 156.831 212.153 160.701 210.171 163.424C209.621 164.277 208.833 164.948 207.905 165.354C207.261 165.584 206.582 165.695 205.899 165.683ZM193.267 158.125C194.746 160.057 196.626 161.644 198.778 162.777C200.93 163.91 203.302 164.56 205.729 164.684C206.324 164.719 206.919 164.642 207.485 164.457C208.241 164.127 208.883 163.583 209.332 162.891C211.156 160.383 211.723 156.752 211.032 152.11C210.714 149.988 210.046 146.958 207.984 145.131C205.922 143.304 202.625 142.952 199.283 142.861H197.946C194.547 142.691 188.984 142.407 188.044 145.482C187.013 148.887 191.216 155.617 193.289 158.193L193.267 158.125Z" fill="#121212"/>
<path d="M213.104 118.348C213.43 117.266 213.974 116.262 214.702 115.398C215.078 114.976 215.574 114.68 216.123 114.55C216.672 114.42 217.248 114.463 217.772 114.671C218.141 114.886 218.451 115.19 218.675 115.554C218.898 115.918 219.028 116.333 219.053 116.759C219.103 117.612 218.964 118.465 218.645 119.256C218.162 120.763 217.327 122.133 216.209 123.251C215.65 123.81 214.983 124.247 214.248 124.536C213.513 124.825 212.726 124.959 211.938 124.93" fill="white"/>
<path d="M212.266 125.452H211.903C211.785 125.441 211.676 125.383 211.6 125.292C211.524 125.201 211.486 125.083 211.496 124.964C211.495 124.904 211.507 124.844 211.532 124.789C211.556 124.734 211.593 124.685 211.638 124.645C211.683 124.606 211.736 124.576 211.794 124.559C211.851 124.541 211.912 124.536 211.971 124.544C212.697 124.569 213.42 124.445 214.096 124.18C214.772 123.914 215.387 123.513 215.903 123.001C216.948 121.923 217.724 120.612 218.169 119.177C218.457 118.456 218.592 117.683 218.565 116.907C218.546 116.554 218.441 116.212 218.259 115.909C218.078 115.607 217.825 115.353 217.523 115.171C217.085 115.002 216.606 114.974 216.151 115.09C215.697 115.206 215.289 115.46 214.985 115.817C214.298 116.633 213.788 117.584 213.49 118.609C213.448 118.722 213.362 118.814 213.253 118.864C213.144 118.914 213.019 118.918 212.906 118.876C212.793 118.834 212.702 118.749 212.652 118.639C212.602 118.529 212.598 118.404 212.64 118.291C212.979 117.146 213.558 116.086 214.339 115.182C214.781 114.691 215.363 114.349 216.006 114.203C216.649 114.057 217.321 114.113 217.931 114.365C218.365 114.616 218.731 114.97 218.997 115.395C219.264 115.82 219.423 116.304 219.46 116.805C219.513 117.727 219.362 118.649 219.019 119.506C218.517 121.081 217.647 122.513 216.481 123.682C215.347 124.781 213.843 125.413 212.266 125.452Z" fill="#121212"/>
<path d="M207.168 133.396L208.505 146.776C208.505 146.776 207.859 154.38 199.509 152.87C197.047 152.398 194.72 151.383 192.698 149.9C190.676 148.416 189.008 146.5 187.816 144.291C187.816 144.291 188.134 120.3 188.122 120.289C188.122 119.313 190.105 115.954 189.153 107.476C192.014 107.181 194.782 106.291 197.281 104.865C199.78 103.438 201.954 101.506 203.667 99.1919C203.667 99.1919 207.542 103.981 209.173 105.456C210.455 106.565 211.597 107.826 212.572 109.213C215.144 113.105 215.053 119.426 214.43 123.966C213.943 127.62 211.79 133.476 207.168 133.396Z" fill="white"/>
<path d="M201.593 153.574C200.863 153.569 200.136 153.501 199.418 153.37C196.869 152.898 194.459 151.854 192.369 150.317C190.28 148.781 188.564 146.79 187.352 144.495C187.316 144.425 187.296 144.347 187.295 144.268C187.295 144.268 187.612 120.436 187.612 120.277C187.633 119.834 187.725 119.398 187.884 118.984C188.954 115.261 189.209 111.352 188.632 107.522C188.623 107.384 188.663 107.247 188.745 107.136C188.837 107.033 188.961 106.965 189.096 106.943C191.878 106.645 194.569 105.777 197.001 104.393C199.434 103.008 201.556 101.138 203.236 98.8968C203.284 98.8311 203.348 98.7777 203.42 98.7409C203.493 98.7041 203.574 98.6849 203.655 98.6849C203.737 98.6849 203.817 98.7041 203.89 98.7409C203.963 98.7777 204.026 98.8311 204.074 98.8968C204.074 98.8968 207.938 103.663 209.513 105.104C210.843 106.23 212.027 107.519 213.036 108.94C216.05 113.48 215.393 121.004 214.974 124.011C214.464 127.597 212.379 133.555 207.734 133.918L209.014 146.742C208.795 148.859 207.758 150.806 206.125 152.167C204.813 153.128 203.218 153.624 201.593 153.574ZM188.337 144.155C189.502 146.262 191.115 148.088 193.06 149.503C195.006 150.919 197.238 151.89 199.599 152.348C200.598 152.607 201.64 152.652 202.657 152.48C203.674 152.308 204.643 151.923 205.502 151.35C206.881 150.174 207.767 148.521 207.983 146.719L206.646 133.396C206.638 133.248 206.687 133.102 206.782 132.988C206.889 132.885 207.031 132.828 207.179 132.829C211.484 132.954 213.467 127.155 213.976 123.75C214.384 120.856 215.03 113.673 212.198 109.394C211.226 108.035 210.084 106.806 208.799 105.74C206.994 103.896 205.285 101.96 203.678 99.9409C200.226 104.297 195.206 107.125 189.697 107.817C190.204 111.617 189.918 115.481 188.858 119.165C188.745 119.481 188.665 119.808 188.621 120.141C188.621 120.141 188.643 120.277 188.337 144.155Z" fill="#121212"/>
<path d="M200.279 114.66C200.279 114.66 205.219 120.652 204.313 121.866C203.406 123.081 200.472 122.638 200.472 122.638" fill="white"/>
<path d="M201.684 123.183C201.252 123.178 200.821 123.148 200.393 123.092C200.263 123.067 200.147 122.993 200.069 122.886C199.991 122.778 199.957 122.645 199.974 122.513C199.996 122.381 200.069 122.263 200.177 122.185C200.285 122.106 200.419 122.073 200.551 122.093C201.231 122.195 203.316 122.32 203.95 121.526C204.234 120.97 202.364 117.883 199.928 114.932C199.844 114.83 199.804 114.698 199.817 114.566C199.83 114.434 199.894 114.313 199.996 114.229C200.098 114.144 200.23 114.104 200.362 114.117C200.493 114.13 200.615 114.194 200.699 114.297C202.636 116.646 205.74 120.788 204.743 122.127C204.343 122.519 203.861 122.816 203.332 122.999C202.803 123.181 202.24 123.244 201.684 123.183Z" fill="#121212"/>
<path d="M207.935 116.34C208.339 116.286 208.583 115.623 208.481 114.859C208.379 114.095 207.969 113.519 207.566 113.573C207.163 113.627 206.919 114.29 207.021 115.054C207.123 115.818 207.532 116.394 207.935 116.34Z" fill="#121212"/>
<path d="M196.061 116.028C196.468 116.023 196.79 115.395 196.781 114.624C196.772 113.853 196.435 113.232 196.028 113.237C195.622 113.241 195.299 113.87 195.308 114.641C195.317 115.412 195.654 116.033 196.061 116.028Z" fill="#121212"/>
<path d="M190.864 116.691C190.567 115.545 190.06 114.463 189.369 113.502C188.973 112.953 188.452 112.507 187.848 112.201C187.245 111.895 186.578 111.738 185.902 111.743C185.486 111.759 185.079 111.869 184.712 112.066C184.345 112.263 184.027 112.54 183.783 112.878C183.487 113.365 183.301 113.911 183.239 114.478C182.809 117.452 183.794 121.287 186.638 122.865C187.11 123.162 187.656 123.32 188.213 123.32C188.77 123.32 189.316 123.162 189.788 122.865" fill="white"/>
<path d="M188.36 123.796C187.666 123.781 186.986 123.598 186.377 123.262C183.409 121.628 182.333 117.588 182.797 114.41C182.882 113.773 183.111 113.164 183.466 112.629C183.745 112.231 184.113 111.904 184.539 111.672C184.965 111.439 185.439 111.309 185.924 111.289C186.674 111.282 187.415 111.454 188.085 111.791C188.756 112.129 189.335 112.622 189.776 113.23C190.504 114.23 191.038 115.358 191.351 116.555C191.369 116.613 191.374 116.673 191.368 116.732C191.362 116.792 191.345 116.85 191.316 116.903C191.288 116.955 191.249 117.002 191.203 117.04C191.156 117.078 191.103 117.106 191.045 117.123C190.931 117.154 190.809 117.14 190.705 117.083C190.602 117.025 190.524 116.93 190.49 116.816C190.205 115.727 189.721 114.699 189.063 113.786C188.715 113.292 188.253 112.889 187.717 112.612C187.18 112.336 186.584 112.193 185.981 112.197C185.635 112.207 185.296 112.296 184.989 112.457C184.683 112.618 184.418 112.848 184.213 113.128C183.953 113.555 183.795 114.037 183.749 114.535C183.33 117.395 184.259 121.038 186.865 122.479C187.258 122.736 187.715 122.879 188.185 122.893C188.654 122.907 189.119 122.791 189.527 122.559C189.573 122.512 189.628 122.476 189.688 122.453C189.749 122.43 189.814 122.42 189.879 122.424C189.943 122.428 190.007 122.446 190.064 122.477C190.121 122.508 190.171 122.55 190.21 122.602C190.25 122.654 190.277 122.713 190.292 122.777C190.306 122.84 190.307 122.906 190.293 122.97C190.28 123.033 190.254 123.093 190.215 123.146C190.177 123.198 190.128 123.242 190.071 123.273C189.576 123.636 188.973 123.82 188.36 123.796Z" fill="#121212"/>
<path d="M237.135 219.464C236.997 219.463 236.863 219.414 236.758 219.325C236.652 219.235 236.581 219.112 236.557 218.976C233.589 200.398 227.901 165.002 227.641 163.935C227.622 163.862 227.618 163.785 227.629 163.709C227.64 163.634 227.666 163.562 227.705 163.496C227.744 163.431 227.795 163.374 227.856 163.329C227.917 163.283 227.986 163.25 228.06 163.232C228.21 163.194 228.369 163.216 228.503 163.295C228.636 163.373 228.734 163.502 228.774 163.652C229.114 165.036 237.362 216.592 237.713 218.783C237.736 218.936 237.698 219.092 237.606 219.218C237.515 219.343 237.378 219.427 237.226 219.452L237.135 219.464Z" fill="#121212"/>
<path d="M200.903 183.114L186.242 183.262L185.777 177.939L199.849 177.769L200.903 183.114Z" fill="white"/>
<path d="M364.844 195.7V313.974C364.842 316.827 364.28 319.651 363.189 322.286C362.098 324.92 360.499 327.314 358.484 329.33C356.47 331.346 354.078 332.945 351.447 334.035C348.815 335.125 345.995 335.685 343.147 335.684H57.3994C54.5528 335.685 51.7337 335.125 49.1034 334.034C46.4732 332.944 44.0833 331.345 42.0704 329.329C40.0575 327.312 38.4611 324.918 37.3724 322.284C36.2837 319.649 35.7241 316.825 35.7256 313.974V195.7C35.7241 192.848 36.2836 190.024 37.3722 187.388C38.4607 184.753 40.057 182.358 42.0697 180.341C44.0824 178.324 46.4723 176.724 49.1026 175.632C51.7329 174.541 54.5522 173.979 57.3994 173.979H343.147C348.9 173.979 354.417 176.267 358.485 180.34C362.554 184.413 364.841 189.938 364.844 195.7Z" fill="white"/>
<path d="M343.148 336.274H57.3997C51.497 336.268 45.8378 333.917 41.664 329.736C37.4902 325.555 35.1427 319.887 35.1367 313.974V195.7C35.1397 189.785 37.4859 184.114 41.66 179.931C45.8342 175.747 51.4951 173.395 57.3997 173.389H343.148C349.053 173.395 354.715 175.747 358.891 179.93C363.067 184.113 365.416 189.784 365.422 195.7V313.974C365.413 319.888 363.063 325.556 358.887 329.737C354.712 333.917 349.051 336.268 343.148 336.274ZM57.3997 174.557C51.8055 174.566 46.4431 176.797 42.4885 180.761C38.5338 184.724 36.3097 190.096 36.3037 195.7V313.974C36.3127 319.575 38.5385 324.943 42.4932 328.902C46.4478 332.861 51.8085 335.088 57.3997 335.094H343.148C348.741 335.091 354.104 332.865 358.061 328.906C362.018 324.947 364.246 319.577 364.255 313.974V195.7C364.249 190.094 362.023 184.72 358.066 180.757C354.109 176.793 348.744 174.563 343.148 174.557H57.3997Z" fill="#121212"/>
<path d="M364.844 195.7V203.644H35.7256V195.7C35.7241 192.848 36.2836 190.024 37.3722 187.388C38.4607 184.753 40.057 182.358 42.0697 180.341C44.0824 178.324 46.4723 176.724 49.1026 175.632C51.7329 174.541 54.5522 173.979 57.3994 173.979H343.147C348.9 173.979 354.417 176.267 358.485 180.34C362.554 184.413 364.841 189.938 364.844 195.7Z" fill="white"/>
<path d="M364.844 204.291H35.7259C35.5696 204.291 35.4198 204.228 35.3093 204.118C35.1988 204.007 35.1367 203.857 35.1367 203.7V195.757C35.1397 189.842 37.4859 184.171 41.66 179.987C45.8342 175.804 51.4951 173.451 57.3997 173.445H343.148C349.043 173.451 354.697 175.796 358.871 179.967C363.046 184.137 365.401 189.794 365.422 195.7V203.644C365.432 203.725 365.424 203.808 365.399 203.886C365.374 203.964 365.333 204.037 365.279 204.098C365.224 204.159 365.157 204.208 365.082 204.241C365.007 204.274 364.926 204.291 364.844 204.291ZM36.281 203.156H364.255V195.7C364.249 190.094 362.023 184.72 358.066 180.757C354.109 176.793 348.744 174.563 343.148 174.557H57.3997C51.8055 174.566 46.4431 176.797 42.4885 180.761C38.5338 184.724 36.3097 190.096 36.3037 195.7L36.281 203.156Z" fill="#121212"/>
<path d="M61.49 193.771C63.4735 193.771 65.0815 192.16 65.0815 190.173C65.0815 188.186 63.4735 186.576 61.49 186.576C59.5064 186.576 57.8984 188.186 57.8984 190.173C57.8984 192.16 59.5064 193.771 61.49 193.771Z" fill="#121212"/>
<path d="M74.0661 193.771C76.0497 193.771 77.6577 192.16 77.6577 190.173C77.6577 188.186 76.0497 186.576 74.0661 186.576C72.0826 186.576 70.4746 188.186 70.4746 190.173C70.4746 192.16 72.0826 193.771 74.0661 193.771Z" fill="#B3B3B3"/>
<path d="M86.6413 193.771C88.6249 193.771 90.2329 192.16 90.2329 190.173C90.2329 188.186 88.6249 186.576 86.6413 186.576C84.6578 186.576 83.0498 188.186 83.0498 190.173C83.0498 192.16 84.6578 193.771 86.6413 193.771Z" fill="#B3B3B3"/>
<path d="M199.906 214.209C199.906 214.209 208.754 217.455 211.349 217.126C213.943 216.797 222.157 213.131 223.12 213.994C224.083 214.856 223.777 217.239 215.189 221.132C215.189 221.132 237.77 233.139 236.467 234.432C235.164 235.726 225.352 231.3 216.594 227.725C216.594 227.725 212.062 235.408 205.367 234.001C198.671 232.594 194.569 226.647 194.569 226.647" fill="white"/>
<path d="M235.673 235.181C233.498 235.181 228.875 233.365 220.673 229.961L216.843 228.372C215.801 229.961 211.473 235.805 205.309 234.512C198.512 233.082 194.354 227.192 194.184 226.942C194.134 226.887 194.097 226.822 194.074 226.751C194.052 226.681 194.045 226.606 194.053 226.533C194.062 226.459 194.086 226.388 194.124 226.324C194.162 226.261 194.213 226.206 194.274 226.164C194.335 226.122 194.404 226.093 194.477 226.08C194.549 226.066 194.624 226.068 194.696 226.086C194.768 226.104 194.835 226.137 194.893 226.183C194.951 226.229 194.999 226.286 195.033 226.352C195.033 226.409 199.112 232.151 205.513 233.502C211.915 234.852 216.152 227.544 216.197 227.464C216.261 227.357 216.362 227.276 216.48 227.236C216.599 227.197 216.728 227.201 216.843 227.249L221.069 228.996C226.417 231.266 234.325 234.5 235.934 234.171C234.62 232.571 224.525 226.658 214.996 221.586C214.911 221.542 214.841 221.475 214.792 221.393C214.744 221.31 214.721 221.216 214.724 221.12C214.727 221.023 214.755 220.929 214.807 220.847C214.859 220.765 214.932 220.698 215.019 220.655C221.896 217.523 222.882 215.628 222.95 214.981C222.976 214.874 222.971 214.763 222.937 214.658C222.903 214.554 222.841 214.461 222.757 214.391C222.191 214.152 218.837 215.321 216.617 216.093C214.917 216.744 213.171 217.268 211.394 217.659C208.697 218.011 200.064 214.833 199.701 214.708C199.572 214.66 199.468 214.562 199.41 214.437C199.353 214.311 199.348 214.168 199.395 214.039C199.418 213.975 199.453 213.917 199.499 213.867C199.544 213.817 199.599 213.777 199.66 213.748C199.721 213.72 199.787 213.704 199.855 213.701C199.922 213.698 199.989 213.709 200.052 213.733C202.488 214.618 209.252 216.876 211.269 216.626C212.99 216.25 214.679 215.742 216.322 215.106C220.741 213.574 222.769 212.972 223.494 213.619C223.704 213.804 223.864 214.04 223.957 214.304C224.05 214.568 224.074 214.852 224.026 215.128C223.766 216.865 221.205 218.896 216.424 221.177C223.222 224.809 236.817 232.299 237.101 234.194C237.12 234.306 237.112 234.421 237.078 234.529C237.045 234.637 236.987 234.736 236.908 234.818C236.737 234.958 236.539 235.063 236.327 235.125C236.115 235.187 235.893 235.206 235.673 235.181Z" fill="#121212"/>
<path d="M173.145 144.064C173.145 144.064 113.528 171.732 113.868 188.596C114.298 210.158 189.698 231.777 189.698 231.777L201.379 209.284L153.273 186.235L188.837 166.818L173.145 144.064Z" fill="#FFB43C"/>
<path d="M262.831 169.859C259.58 168.804 255.716 168.134 252.974 170.188C251.694 171.294 250.679 172.675 250.006 174.228C248.511 177.193 247.221 180.257 246.143 183.398C245.859 184.215 245.678 185.305 246.38 185.793C247.083 186.281 248.329 185.441 248.884 184.544C249.868 182.949 250.63 181.227 251.15 179.426C249.927 181.995 249.065 184.722 248.59 187.529C248.488 187.869 248.488 188.232 248.59 188.573C248.764 188.855 249.04 189.06 249.36 189.145C249.681 189.229 250.022 189.187 250.312 189.027C250.88 188.676 251.34 188.173 251.638 187.574C253.04 185.201 254.18 182.682 255.036 180.062C254.05 182.755 253.506 185.591 253.428 188.459C253.405 188.7 253.433 188.943 253.511 189.172C253.589 189.401 253.715 189.611 253.881 189.787C254.11 189.934 254.38 190.004 254.651 189.985C254.922 189.967 255.181 189.862 255.388 189.685C255.783 189.312 256.089 188.854 256.283 188.346L259.682 181.196C258.931 183.858 258.516 186.603 258.447 189.367C258.417 189.596 258.453 189.828 258.549 190.037C258.934 190.763 260.056 190.275 260.543 189.606C261.273 188.462 261.784 187.192 262.05 185.861C262.979 182.354 263.783 178.779 264.848 175.318C265.868 172.492 266.174 170.949 262.831 169.859Z" fill="white"/>
<path d="M259.296 190.911H259.194C258.99 190.904 258.793 190.842 258.621 190.733C258.45 190.623 258.311 190.469 258.22 190.287C258.086 189.992 258.032 189.667 258.061 189.345C258.095 188.004 258.208 186.666 258.401 185.339L256.86 188.573C256.624 189.148 256.264 189.663 255.806 190.082C255.512 190.335 255.142 190.484 254.755 190.504C254.368 190.525 253.984 190.416 253.665 190.196C253.442 189.972 253.269 189.703 253.156 189.408C253.043 189.113 252.992 188.798 253.008 188.482C252.992 187.667 253.034 186.852 253.132 186.042C252.815 186.655 252.475 187.256 252.124 187.847C251.779 188.532 251.244 189.103 250.583 189.492C250.344 189.611 250.083 189.68 249.816 189.695C249.55 189.711 249.283 189.673 249.031 189.583C248.839 189.514 248.664 189.407 248.514 189.268C248.364 189.13 248.243 188.963 248.159 188.777C248.002 188.348 247.978 187.881 248.091 187.438C248.181 186.927 248.283 186.417 248.385 185.906C248.062 186.187 247.672 186.379 247.252 186.462C247.043 186.508 246.826 186.511 246.616 186.47C246.405 186.429 246.205 186.345 246.029 186.224C245.496 185.849 244.986 185.032 245.598 183.239C246.681 180.073 247.984 176.986 249.496 174.001C250.193 172.368 251.26 170.919 252.611 169.768C254.968 167.998 258.355 167.873 262.944 169.371C266.921 170.665 266.23 172.889 265.425 175.477C264.711 177.746 264.111 180.152 263.533 182.456C263.239 183.591 262.944 184.817 262.627 185.985C262.344 187.381 261.807 188.712 261.041 189.912C260.837 190.193 260.576 190.427 260.275 190.599C259.975 190.771 259.641 190.877 259.296 190.911ZM259.817 180.697C259.877 180.686 259.938 180.686 259.998 180.697C260.118 180.747 260.216 180.839 260.275 180.956C260.333 181.072 260.347 181.206 260.316 181.333C259.58 183.95 259.169 186.649 259.092 189.367C259.067 189.506 259.067 189.648 259.092 189.787C259.092 189.787 259.149 189.855 259.228 189.867C259.618 189.805 259.97 189.598 260.214 189.288C260.903 188.194 261.387 186.982 261.641 185.713C261.958 184.578 262.253 183.364 262.547 182.195C263.125 179.869 263.68 177.474 264.451 175.159C265.335 172.31 265.493 171.278 262.627 170.336C258.378 168.951 255.319 169.042 253.246 170.585C252.026 171.646 251.061 172.969 250.425 174.455C248.946 177.393 247.663 180.426 246.584 183.534C246.437 183.965 246.153 184.998 246.584 185.339C246.646 185.382 246.716 185.412 246.79 185.426C246.865 185.439 246.941 185.437 247.014 185.418C247.578 185.206 248.051 184.805 248.351 184.283C248.623 183.841 248.884 183.387 249.122 182.921C249.538 181.654 250.034 180.415 250.606 179.21C250.665 179.094 250.764 179.003 250.885 178.955C251.006 178.907 251.141 178.905 251.263 178.949C251.384 178.998 251.483 179.09 251.539 179.207C251.596 179.325 251.607 179.46 251.569 179.585C251.194 180.877 250.697 182.131 250.085 183.33C249.621 184.734 249.265 186.172 249.02 187.631C248.951 187.872 248.951 188.128 249.02 188.369C249.047 188.428 249.086 188.481 249.135 188.524C249.184 188.567 249.241 188.599 249.303 188.618C249.535 188.714 249.796 188.714 250.028 188.618C250.517 188.319 250.91 187.886 251.161 187.37C252.56 185.031 253.7 182.546 254.56 179.959C254.581 179.895 254.614 179.836 254.657 179.784C254.701 179.733 254.754 179.69 254.814 179.66C254.874 179.629 254.94 179.611 255.007 179.606C255.074 179.601 255.142 179.609 255.206 179.63C255.336 179.672 255.444 179.763 255.508 179.884C255.571 180.005 255.585 180.146 255.546 180.277C254.566 182.913 254.03 185.693 253.96 188.505C253.922 188.841 254.016 189.178 254.22 189.447C254.356 189.517 254.511 189.544 254.663 189.524C254.815 189.504 254.957 189.437 255.07 189.333C255.401 189.014 255.66 188.627 255.829 188.198L259.228 181.037C259.262 180.914 259.342 180.808 259.452 180.74C259.561 180.673 259.691 180.65 259.817 180.674V180.697Z" fill="#121212"/>
<path d="M208.584 124.42C208.584 124.42 199.827 135.462 193.437 123.285L208.584 124.42Z" fill="white"/>
<path d="M200.676 129.492H200.064C197.311 129.231 194.931 127.223 192.983 123.489C192.926 123.369 192.916 123.232 192.956 123.106C192.996 122.98 193.082 122.873 193.198 122.808C193.257 122.777 193.321 122.758 193.387 122.751C193.453 122.745 193.52 122.753 193.583 122.773C193.647 122.793 193.705 122.825 193.756 122.868C193.806 122.912 193.848 122.964 193.878 123.024C195.657 126.428 197.764 128.267 200.155 128.494C204.358 128.891 208.153 124.17 208.199 124.125C208.24 124.073 208.29 124.03 208.348 123.999C208.405 123.967 208.468 123.947 208.533 123.939C208.599 123.932 208.665 123.937 208.728 123.956C208.791 123.974 208.85 124.004 208.901 124.045C208.952 124.086 208.995 124.137 209.027 124.194C209.059 124.252 209.079 124.315 209.086 124.381C209.094 124.446 209.088 124.512 209.07 124.575C209.052 124.638 209.021 124.697 208.98 124.749C208.822 124.93 205.151 129.492 200.676 129.492Z" fill="#121212"/>
<path d="M278.364 165.093C278.294 165.095 278.224 165.082 278.16 165.054C278.095 165.027 278.038 164.986 277.99 164.934C277.893 164.836 277.838 164.703 277.838 164.565C277.838 164.427 277.893 164.294 277.99 164.196C284.108 158.318 285.513 145.88 277.843 136.721C269.912 127.302 257.325 125.475 250.493 125.225C249.009 125.225 247.491 125.157 245.961 125.146C239.163 125.146 232.218 125.078 226.848 121.026C223.732 118.689 221.591 113.934 219.325 108.906C216.39 102.415 213.365 95.6965 208.21 94.9135C207.316 94.8714 206.424 95.0223 205.593 95.3561C204.725 95.8002 203.745 95.9789 202.776 95.8699C201.807 95.761 200.892 95.3692 200.144 94.7432L199.77 94.5049C195.317 91.7018 189.256 91.7472 183.523 94.6298C176.011 98.4202 172.657 107.034 172.023 113.831C171.287 121.775 173.235 129.629 175.127 137.243C175.162 137.377 175.142 137.52 175.072 137.639C175.002 137.758 174.887 137.844 174.754 137.879C174.618 137.91 174.477 137.887 174.358 137.815C174.24 137.743 174.154 137.628 174.119 137.493C172.204 129.799 170.233 121.844 170.981 113.729C171.819 104.651 176.453 97.0243 183.058 93.6992C189.108 90.6464 195.521 90.6124 200.325 93.6197L200.721 93.8694C201.336 94.4063 202.1 94.741 202.911 94.8283C203.721 94.9156 204.539 94.7512 205.253 94.3574C206.235 93.9657 207.293 93.8027 208.346 93.8808C214.011 94.7432 217.206 101.723 220.254 108.475C222.463 113.378 224.548 118.008 227.448 120.198C232.547 124.034 239.356 124.068 245.938 124.102C247.479 124.102 249.009 124.102 250.47 124.181C257.461 124.431 270.422 126.315 278.579 136.052C286.737 145.789 285.105 158.749 278.647 164.945C278.572 165.024 278.472 165.076 278.364 165.093Z" fill="#121212"/>
<path d="M147.04 189.458C146.923 189.458 146.809 189.419 146.717 189.347C146.625 189.274 146.56 189.173 146.532 189.059C146.505 188.944 146.516 188.824 146.565 188.718C146.614 188.611 146.698 188.524 146.802 188.471L185.867 168.225C185.991 168.165 186.133 168.154 186.264 168.197C186.395 168.239 186.505 168.331 186.57 168.452C186.603 168.513 186.623 168.58 186.63 168.648C186.636 168.717 186.628 168.787 186.607 168.852C186.586 168.918 186.552 168.979 186.506 169.031C186.461 169.083 186.405 169.126 186.343 169.156L147.278 189.401C147.204 189.436 147.123 189.455 147.04 189.458Z" fill="#121212"/>
<path d="M124.076 104.537C125.577 104.537 126.795 103.318 126.795 101.813C126.795 100.309 125.577 99.0897 124.076 99.0897C122.574 99.0897 121.356 100.309 121.356 101.813C121.356 103.318 122.574 104.537 124.076 104.537Z" fill="white"/>
<path fill-rule="evenodd" clip-rule="evenodd" d="M167.836 33.5C179.767 33.5 189.439 43.1723 189.439 55.1036C189.439 67.0349 179.767 76.7072 167.836 76.7072H131.253C130.956 80.2257 132.086 85.6337 137.733 91.1096C133.868 89.0587 126.192 83.605 122.975 76.7072H32.9428C21.0114 76.7072 11.3392 67.0349 11.3392 55.1036C11.3392 43.1723 21.0115 33.5 32.9428 33.5H167.836Z" fill="white"/>
<path d="M131.253 76.7072L130.755 76.665L130.794 76.2072H131.253V76.7072ZM137.733 91.1096L138.081 90.7506L137.499 91.5512L137.733 91.1096ZM122.975 76.7072V76.2072H123.294L123.429 76.4959L122.975 76.7072ZM188.939 55.1036C188.939 43.4484 179.491 34 167.836 34V33C180.043 33 189.939 42.8961 189.939 55.1036H188.939ZM167.836 76.2072C179.491 76.2072 188.939 66.7588 188.939 55.1036H189.939C189.939 67.3111 180.043 77.2072 167.836 77.2072V76.2072ZM131.253 76.2072H167.836V77.2072H131.253V76.2072ZM137.385 91.4685C131.635 85.8927 130.444 80.3393 130.755 76.665L131.752 76.7494C131.467 80.1121 132.538 85.3747 138.081 90.7506L137.385 91.4685ZM123.429 76.4959C124.997 79.8593 127.666 82.8941 130.443 85.3516C133.216 87.8067 136.069 89.6605 137.967 90.6679L137.499 91.5512C135.532 90.5078 132.614 88.6093 129.78 86.1004C126.948 83.5939 124.17 80.4529 122.522 76.9185L123.429 76.4959ZM32.9428 76.2072H122.975V77.2072H32.9428V76.2072ZM11.8392 55.1036C11.8392 66.7588 21.2876 76.2072 32.9428 76.2072V77.2072C20.7353 77.2072 10.8392 67.3111 10.8392 55.1036H11.8392ZM32.9428 34C21.2876 34 11.8392 43.4484 11.8392 55.1036H10.8392C10.8392 42.8961 20.7353 33 32.9428 33V34ZM167.836 34H32.9428V33H167.836V34Z" fill="#121212"/>
<path d="M37.276 49.4185C35.4781 49.4253 34.2203 51.0728 34.2271 53.6567C34.2203 56.2476 35.4781 57.8882 37.276 57.8813C38.9713 57.8882 40.1881 56.3979 40.3043 54.0122H43.0182V60.6567H44.0846V48.4751H43.0182V53.1235H40.2906C40.1266 50.8472 38.9303 49.4253 37.276 49.4185ZM35.2525 53.6567C35.2594 51.6812 36.0797 50.3823 37.276 50.3755C38.4654 50.3823 39.2994 51.6812 39.2994 53.6567C39.2994 55.6323 38.4654 56.9312 37.276 56.9243C36.0797 56.9312 35.2594 55.6323 35.2525 53.6567ZM56.6217 59.4673H49.2252V56.5962H48.1588V60.3696H56.6217V59.4673ZM46.4498 55.3521H46.9693C47.7418 55.3521 48.6441 55.3521 49.7721 55.106L49.6627 54.2173C48.856 54.4019 48.1246 54.4565 47.5025 54.4771V50.3755H49.526V49.4868H46.4498V55.3521ZM50.1959 55.3521H50.8111C52.1305 55.3521 53.0328 55.3247 54.1607 55.0786L54.0514 54.1899C53.1217 54.4087 52.315 54.4702 51.276 54.4839V50.3755H53.5865V49.4868H50.1959V55.3521ZM52.9986 52.7271H55.2408V57.3208H56.2935V48.4888H55.2408V51.8384H52.9986V52.7271ZM67.7779 50.2661V49.3364H66.6568V50.2661C66.65 52.3579 64.2916 54.1968 62.1861 54.6001L62.6783 55.5024C64.5172 55.0718 66.4381 53.7729 67.231 51.9888C68.0172 53.7729 69.9449 55.0786 71.7838 55.5024L72.276 54.6001C70.1637 54.2036 67.7848 52.3511 67.7779 50.2661ZM61.7213 58.9751H72.8502V58.0864H61.7213V58.9751ZM80.0553 49.5825H74.3541V57.7036H75.3111C77.6148 57.6968 79.2076 57.6284 81.108 57.3071L80.985 56.4185C79.1666 56.7329 77.6285 56.8149 75.4342 56.8149V53.8755H79.7818V53.0005H75.4342V50.4849H80.0553V49.5825ZM82.1607 60.6294H83.2271V54.2856H85.2643V53.3696H83.2271V48.4751H82.1607V60.6294ZM89.3658 48.9263C87.5269 48.9331 86.2008 50.0405 86.2076 51.6196C86.2008 53.2056 87.5269 54.2993 89.3658 54.2993C91.1842 54.2993 92.5035 53.2056 92.5103 51.6196C92.5035 50.0405 91.1842 48.9331 89.3658 48.9263ZM87.2603 51.6196C87.2467 50.5669 88.1422 49.8218 89.3658 49.8286C90.5689 49.8218 91.4713 50.5669 91.4713 51.6196C91.4713 52.686 90.5689 53.4243 89.3658 53.4243C88.1422 53.4243 87.2467 52.686 87.2603 51.6196ZM88.0533 56.1724H94.8893V57.4302H88.0807V60.4653H96.3932V59.604H89.1334V58.2368H95.9557V55.311H88.0533V56.1724ZM94.8893 54.7231H95.9557V48.4751H94.8893V54.7231ZM103.557 48.6938C100.843 48.6938 99.2506 49.439 99.2506 50.7856C99.2506 52.1665 100.843 52.9116 103.557 52.9185C106.257 52.9116 107.843 52.1665 107.85 50.7856C107.843 49.439 106.257 48.6938 103.557 48.6938ZM98.0201 54.6138H109.094V53.7388H98.0201V54.6138ZM99.36 56.4868H106.62V57.5942H99.3873V60.4927H108.042V59.645H100.454V58.3872H107.672V55.6665H99.36V56.4868ZM100.372 50.7856C100.358 49.9858 101.541 49.5073 103.557 49.5005C105.574 49.5073 106.75 49.9858 106.756 50.7856C106.75 51.6333 105.574 52.0981 103.557 52.0981C101.541 52.0981 100.358 51.6333 100.372 50.7856ZM117.79 50.772V49.2271H116.737V50.731C116.73 52.5972 115.472 54.2993 113.647 54.9692L114.221 55.8442C115.657 55.27 116.764 54.1079 117.277 52.6382C117.796 53.9644 118.863 55.0171 120.196 55.5435L120.797 54.7095C119.02 54.0669 117.79 52.4673 117.79 50.772ZM115.848 60.3696H123.983V59.4673H116.928V56.5552H115.848V60.3696ZM119.922 52.2485H122.629V57.5942H123.71V48.4888H122.629V51.3462H119.922V52.2485ZM136.233 50.2798H131.79V48.6802H130.737V50.2798H126.28V51.1685H136.233V50.2798ZM125.733 59.2075H136.862V58.3188H131.79V56.6099C133.936 56.4937 135.269 55.6528 135.262 54.2856C135.269 52.8433 133.717 51.9888 131.27 52.0024C128.789 51.9888 127.264 52.8433 127.278 54.2856C127.264 55.6528 128.57 56.4937 130.737 56.6099V58.3188H125.733V59.2075ZM128.358 54.2856C128.344 53.3833 129.459 52.8501 131.27 52.8501C133.061 52.8501 134.175 53.3833 134.169 54.2856C134.175 55.2085 133.061 55.7417 131.27 55.7485C129.459 55.7417 128.344 55.2085 128.358 54.2856ZM147.335 48.4341H146.268V55.1606H147.335V52.2759H149.18V51.3872H147.335V48.4341ZM137.86 50.4438H145.106V49.5825H142.016V48.3521H140.95V49.5825H137.86V50.4438ZM138.557 52.9868C138.55 54.2241 139.712 54.9761 141.483 54.9829C143.247 54.9761 144.395 54.2241 144.409 52.9868C144.395 51.7563 143.247 50.9976 141.483 50.9907C139.712 50.9976 138.55 51.7563 138.557 52.9868ZM139.583 56.5962H146.268V57.6899H139.61V60.4927H147.786V59.6724H140.663V58.4829H147.335V55.7896H139.583V56.5962ZM139.583 52.9868C139.576 52.2622 140.328 51.7905 141.483 51.7837C142.631 51.7905 143.383 52.2622 143.397 52.9868C143.383 53.7183 142.631 54.1763 141.483 54.1763C140.328 54.1763 139.576 53.7183 139.583 52.9868ZM159.557 48.4751H158.477V60.6294H159.557V54.395H161.403V53.4927H159.557V48.4751ZM149.891 57.2661L150.753 57.8813C152.961 55.5503 153.61 52.6929 153.624 49.8013H150.274V50.7036H152.605C152.468 53.1235 151.723 55.3862 149.891 57.2661ZM153.378 58.0864L154.253 58.688C156.529 56.0425 156.953 52.686 156.96 49.8013H154.006V50.7036H155.948C155.845 53.2397 155.278 55.9399 153.378 58.0864ZM163.973 56.6646V56.7329H165.149V56.6646C165.176 55.4819 165.484 54.9556 166.338 54.436C167.186 53.9165 167.692 53.1714 167.692 52.0981C167.692 50.5874 166.578 49.4868 164.862 49.4868C163.296 49.4868 162.046 50.4507 161.977 52.1118H163.221C163.296 50.9839 164.083 50.519 164.862 50.5259C165.764 50.519 166.489 51.1138 166.489 52.0435C166.489 52.8091 166.058 53.356 165.491 53.6978C164.547 54.272 163.987 54.8325 163.973 56.6646ZM163.727 58.7153C163.713 59.2007 164.124 59.5972 164.602 59.604C165.087 59.5972 165.484 59.2007 165.477 58.7153C165.484 58.2368 165.087 57.8403 164.602 57.8403C164.124 57.8403 163.713 58.2368 163.727 58.7153Z" fill="#121212"/>
<rect x="209.311" y="247.394" width="56.4517" height="56.6096" rx="1.5" fill="#0064FF" fill-opacity="0.1" stroke="#0064FF"/>
<path d="M237.252 286.756C237.252 286.756 222.426 280.453 224.423 268.776C226.421 257.098 237.252 269.451 237.252 269.451C237.252 269.451 242.147 262.332 247.492 264.048C252.837 265.765 249.996 279.806 237.252 286.756Z" fill="#0064FF"/>
<rect x="283.997" y="247.394" width="56.4517" height="56.6096" rx="1.5" stroke="#B3B3B3"/>
<path d="M283.632 291.066C283.516 291.066 283.401 291.033 283.304 290.971C283.207 290.91 283.131 290.822 283.085 290.719C283.04 290.616 283.027 290.503 283.048 290.393C283.07 290.283 283.124 290.181 283.206 290.101L301.569 272.508C302.114 271.987 302.766 271.579 303.484 271.31C304.202 271.042 304.97 270.918 305.74 270.947C306.51 270.976 307.265 271.157 307.959 271.479C308.652 271.801 309.268 272.257 309.769 272.817L324.46 289.248C324.568 289.356 324.628 289.5 324.628 289.65C324.628 289.799 324.568 289.943 324.46 290.052C324.401 290.102 324.332 290.141 324.258 290.165C324.183 290.189 324.104 290.199 324.025 290.193C323.947 290.187 323.87 290.166 323.8 290.131C323.731 290.096 323.669 290.048 323.619 289.99L308.902 273.584C308.513 273.139 308.029 272.777 307.483 272.523C306.937 272.269 306.341 272.129 305.734 272.112C305.126 272.088 304.52 272.185 303.954 272.398C303.389 272.611 302.876 272.935 302.449 273.349L284.046 290.943C283.931 291.034 283.782 291.079 283.632 291.066Z" fill="#B3B3B3"/>
<path d="M339.896 286.756C339.815 286.756 339.734 286.739 339.659 286.705C339.585 286.671 339.518 286.62 339.464 286.557L331.84 277.915C331.438 277.459 330.949 277.094 330.404 276.846C329.859 276.598 329.271 276.471 328.676 276.473C328.078 276.47 327.486 276.599 326.939 276.849C326.392 277.1 325.901 277.468 325.499 277.929L319.908 284.228C319.857 284.287 319.794 284.335 319.725 284.369C319.655 284.403 319.58 284.422 319.503 284.426C319.427 284.43 319.35 284.418 319.278 284.39C319.205 284.363 319.139 284.322 319.082 284.268C319.026 284.214 318.98 284.149 318.947 284.076C318.914 284.004 318.896 283.926 318.892 283.846C318.889 283.766 318.9 283.686 318.926 283.611C318.952 283.536 318.993 283.467 319.044 283.407L324.597 277.108C325.112 276.526 325.736 276.061 326.432 275.742C327.127 275.423 327.878 275.258 328.638 275.255C329.386 275.264 330.125 275.432 330.809 275.748C331.492 276.064 332.107 276.523 332.615 277.095L340.239 285.723C340.319 285.809 340.373 285.918 340.394 286.035C340.415 286.153 340.402 286.274 340.358 286.384C340.313 286.494 340.238 286.588 340.142 286.654C340.047 286.72 339.935 286.755 339.82 286.756H339.896Z" fill="#B3B3B3"/>
<path d="M321.056 269.505C320.346 269.508 319.652 269.299 319.061 268.905C318.469 268.512 318.008 267.952 317.735 267.295C317.461 266.639 317.388 265.916 317.525 265.218C317.662 264.52 318.003 263.878 318.504 263.374C319.005 262.871 319.643 262.527 320.339 262.387C321.035 262.248 321.757 262.318 322.413 262.59C323.068 262.861 323.629 263.322 324.024 263.913C324.418 264.505 324.629 265.2 324.629 265.911C324.629 266.862 324.253 267.774 323.583 268.448C322.913 269.122 322.005 269.502 321.056 269.505ZM321.056 263.482C320.573 263.479 320.1 263.621 319.698 263.888C319.295 264.156 318.981 264.537 318.795 264.983C318.609 265.43 318.56 265.922 318.654 266.397C318.747 266.872 318.979 267.308 319.321 267.65C319.662 267.993 320.098 268.225 320.571 268.319C321.045 268.413 321.536 268.364 321.981 268.177C322.427 267.991 322.807 267.676 323.074 267.272C323.341 266.869 323.482 266.395 323.479 265.911C323.466 265.276 323.205 264.671 322.752 264.226C322.299 263.781 321.69 263.532 321.056 263.532V263.482Z" fill="#B3B3B3"/>
<rect x="134.624" y="247.394" width="56.4517" height="56.6096" rx="1.5" stroke="#B3B3B3"/>
<path d="M134.482 291.066C134.365 291.066 134.251 291.033 134.154 290.971C134.056 290.91 133.98 290.822 133.935 290.719C133.889 290.616 133.876 290.503 133.898 290.393C133.919 290.283 133.974 290.181 134.055 290.101L152.419 272.508C152.964 271.987 153.616 271.579 154.334 271.31C155.051 271.042 155.819 270.918 156.589 270.947C157.359 270.976 158.115 271.157 158.808 271.479C159.502 271.801 160.118 272.257 160.618 272.817L175.309 289.248C175.418 289.356 175.478 289.5 175.478 289.65C175.478 289.799 175.418 289.943 175.309 290.052C175.251 290.102 175.182 290.141 175.107 290.165C175.033 290.189 174.954 290.199 174.875 290.193C174.796 290.187 174.72 290.166 174.65 290.131C174.58 290.096 174.518 290.048 174.469 289.99L159.752 273.584C159.362 273.139 158.879 272.777 158.333 272.523C157.786 272.269 157.19 272.129 156.583 272.112C155.976 272.088 155.37 272.185 154.804 272.398C154.238 272.611 153.726 272.935 153.298 273.349L134.896 290.943C134.78 291.034 134.632 291.079 134.482 291.066Z" fill="#B3B3B3"/>
<path d="M190.746 286.756C190.664 286.756 190.584 286.739 190.509 286.705C190.435 286.671 190.368 286.62 190.314 286.557L182.69 277.915C182.288 277.459 181.799 277.094 181.254 276.846C180.709 276.598 180.12 276.471 179.526 276.473C178.928 276.47 178.336 276.599 177.789 276.849C177.242 277.1 176.751 277.468 176.349 277.929L170.758 284.228C170.706 284.287 170.644 284.335 170.574 284.369C170.505 284.403 170.43 284.422 170.353 284.426C170.276 284.43 170.199 284.418 170.127 284.39C170.055 284.363 169.989 284.322 169.932 284.268C169.875 284.214 169.829 284.149 169.797 284.076C169.764 284.004 169.745 283.926 169.742 283.846C169.738 283.766 169.75 283.686 169.776 283.611C169.802 283.536 169.842 283.467 169.894 283.407L175.447 277.108C175.961 276.526 176.586 276.061 177.281 275.742C177.977 275.423 178.728 275.258 179.487 275.255C180.236 275.264 180.974 275.432 181.658 275.748C182.342 276.064 182.957 276.523 183.465 277.095L191.089 285.723C191.169 285.809 191.222 285.918 191.243 286.035C191.265 286.153 191.252 286.274 191.207 286.384C191.162 286.494 191.088 286.588 190.992 286.654C190.896 286.72 190.784 286.755 190.669 286.756H190.746Z" fill="#B3B3B3"/>
<path d="M171.905 269.505C171.196 269.508 170.501 269.299 169.91 268.905C169.319 268.512 168.857 267.952 168.584 267.295C168.311 266.639 168.238 265.916 168.375 265.218C168.512 264.52 168.852 263.878 169.353 263.374C169.854 262.871 170.493 262.527 171.189 262.387C171.885 262.248 172.606 262.318 173.262 262.59C173.918 262.861 174.479 263.322 174.873 263.913C175.268 264.505 175.478 265.2 175.478 265.911C175.478 266.862 175.102 267.774 174.433 268.448C173.763 269.122 172.854 269.502 171.905 269.505ZM171.905 263.482C171.423 263.479 170.95 263.621 170.547 263.888C170.145 264.156 169.831 264.537 169.645 264.983C169.459 265.43 169.41 265.922 169.503 266.397C169.597 266.872 169.829 267.308 170.17 267.65C170.512 267.993 170.947 268.225 171.421 268.319C171.895 268.413 172.385 268.364 172.831 268.177C173.277 267.991 173.657 267.676 173.924 267.272C174.19 266.869 174.332 266.395 174.329 265.911C174.316 265.276 174.055 264.671 173.602 264.226C173.149 263.781 172.54 263.532 171.905 263.532V263.482Z" fill="#B3B3B3"/>
<rect x="59.9365" y="247.394" width="56.4517" height="56.6096" rx="1.5" stroke="#B3B3B3"/>
<path d="M59.9058 291.066C59.789 291.066 59.6748 291.033 59.5775 290.971C59.4802 290.91 59.404 290.822 59.3585 290.719C59.313 290.616 59.3002 290.503 59.3216 290.393C59.3431 290.283 59.3978 290.181 59.4791 290.101L77.8429 272.508C78.3879 271.987 79.0397 271.579 79.7574 271.31C80.4751 271.042 81.2431 270.918 82.0131 270.947C82.7832 270.976 83.5387 271.157 84.232 271.479C84.9253 271.801 85.5416 272.257 86.042 272.817L100.733 289.248C100.841 289.356 100.902 289.5 100.902 289.65C100.902 289.799 100.841 289.943 100.733 290.052C100.674 290.102 100.606 290.141 100.531 290.165C100.457 290.189 100.378 290.199 100.299 290.193C100.22 290.187 100.144 290.166 100.074 290.131C100.004 290.096 99.9423 290.048 99.8925 289.99L85.1755 273.584C84.7862 273.139 84.3025 272.777 83.7564 272.523C83.2102 272.269 82.614 272.129 82.0071 272.112C81.3997 272.088 80.7936 272.185 80.2279 272.398C79.6622 272.611 79.1493 272.935 78.7223 273.349L60.3196 290.943C60.2042 291.034 60.0554 291.079 59.9058 291.066Z" fill="#B3B3B3"/>
<path d="M116.17 286.756C116.088 286.756 116.007 286.739 115.933 286.705C115.858 286.671 115.792 286.62 115.738 286.557L108.113 277.915C107.712 277.459 107.223 277.094 106.678 276.846C106.133 276.598 105.544 276.471 104.949 276.473C104.352 276.47 103.76 276.599 103.213 276.849C102.665 277.1 102.175 277.468 101.773 277.929L96.1817 284.228C96.13 284.287 96.0676 284.335 95.9981 284.369C95.9286 284.403 95.8533 284.422 95.7766 284.426C95.7 284.43 95.6233 284.418 95.5511 284.39C95.4789 284.363 95.4125 284.322 95.3558 284.268C95.2991 284.214 95.2531 284.149 95.2204 284.076C95.1878 284.004 95.1692 283.926 95.1657 283.846C95.1621 283.766 95.1737 283.686 95.1998 283.611C95.2259 283.536 95.2659 283.467 95.3177 283.407L100.871 277.108C101.385 276.526 102.01 276.061 102.705 275.742C103.4 275.423 104.152 275.258 104.911 275.255C105.66 275.264 106.398 275.432 107.082 275.748C107.766 276.064 108.381 276.523 108.889 277.095L116.513 285.723C116.592 285.809 116.646 285.918 116.667 286.035C116.688 286.153 116.676 286.274 116.631 286.384C116.586 286.494 116.512 286.588 116.416 286.654C116.32 286.72 116.208 286.755 116.093 286.756H116.17Z" fill="#B3B3B3"/>
<path d="M97.3293 269.505C96.6197 269.508 95.9252 269.299 95.334 268.906C94.7427 268.512 94.2813 267.952 94.008 267.295C93.7347 266.639 93.6619 265.916 93.7988 265.218C93.9357 264.52 94.2762 263.879 94.7772 263.375C95.2781 262.871 95.9169 262.527 96.6127 262.388C97.3086 262.248 98.0301 262.318 98.686 262.59C99.3418 262.862 99.9025 263.322 100.297 263.914C100.692 264.505 100.902 265.2 100.902 265.911C100.902 266.862 100.526 267.775 99.8565 268.448C99.1868 269.122 98.278 269.502 97.3293 269.505ZM97.3293 263.482C96.8464 263.48 96.3737 263.621 95.9712 263.888C95.5687 264.156 95.2545 264.537 95.0686 264.984C94.8827 265.43 94.8334 265.922 94.927 266.397C95.0206 266.872 95.2529 267.308 95.5943 267.651C95.9357 267.993 96.3709 268.226 96.8447 268.319C97.3184 268.413 97.8092 268.364 98.2548 268.177C98.7005 267.991 99.0808 267.676 99.3475 267.273C99.6143 266.869 99.7553 266.395 99.7529 265.911C99.7398 265.276 99.4787 264.671 99.0256 264.226C98.5725 263.781 97.9635 263.532 97.3293 263.532V263.482Z" fill="#B3B3B3"/>
<path d="M360.38 64.0852L354.573 70.1739L356.404 78.2987L348.685 74.7799L341.34 79.0005L342.382 70.7373L335.999 65.2219L344.365 63.6306L347.764 56L351.902 63.2846L360.38 64.0852Z" fill="#FFF4CB"/>
<ellipse cx="357.466" cy="158.32" rx="5.02702" ry="5.04084" fill="white"/>
<path d="M111.547 124.277C111.265 124.577 111.04 124.927 110.882 125.309C110.711 125.723 110.622 126.168 110.622 126.617C110.622 127.292 110.822 127.953 111.197 128.515C111.302 128.672 111.419 128.82 111.547 128.956C111.099 128.492 110.794 127.908 110.668 127.274C110.538 126.62 110.605 125.943 110.859 125.328C111.022 124.935 111.256 124.579 111.547 124.277Z" fill="#B3B3B3" stroke="#B3B3B3"/>
<path d="M75.6909 143.916H75.6908C75.652 143.916 75.6147 143.901 75.5869 143.873C75.5591 143.845 75.5433 143.807 75.5433 143.767V139.157C75.5433 139.117 75.5591 139.079 75.5869 139.051C75.6147 139.023 75.6521 139.007 75.6908 139.008L75.6909 139.007C75.7329 139.007 75.7735 139.024 75.8039 139.054C75.8335 139.083 75.8511 139.122 75.8529 139.164V143.76C75.8511 143.802 75.8335 143.841 75.8039 143.87L76.1316 144.204L75.8039 143.87C75.7736 143.9 75.733 143.916 75.6909 143.916ZM75.6909 153.138H75.6908C75.6521 153.138 75.6147 153.123 75.5869 153.095C75.5591 153.067 75.5433 153.029 75.5433 152.989V148.378C75.5433 148.338 75.5591 148.3 75.5869 148.272C75.6147 148.244 75.6521 148.229 75.6908 148.229H75.6909C75.7329 148.229 75.7735 148.245 75.8039 148.275L76.1592 147.913L75.8039 148.275C75.8335 148.304 75.8511 148.344 75.8529 148.385V152.96H75.8528L75.853 152.971C75.8535 152.993 75.8496 153.014 75.8416 153.035C75.8336 153.055 75.8216 153.074 75.8064 153.089C75.7912 153.105 75.7732 153.117 75.7534 153.125C75.7335 153.134 75.7123 153.138 75.6909 153.138ZM82.5906 146.222H77.9907C77.9519 146.222 77.9145 146.206 77.8868 146.179C77.859 146.151 77.8431 146.113 77.8431 146.073C77.8431 146.033 77.8589 145.995 77.8868 145.967C77.9145 145.939 77.9519 145.924 77.9907 145.924H82.5906C82.6293 145.924 82.6667 145.939 82.6944 145.967C82.7223 145.995 82.7381 146.033 82.7381 146.073C82.7381 146.113 82.7222 146.151 82.6944 146.179C82.6667 146.206 82.6293 146.222 82.5906 146.222ZM73.3908 146.222H68.8055C68.7667 146.222 68.7293 146.206 68.7015 146.179C68.6737 146.151 68.6579 146.113 68.6579 146.073C68.6579 146.033 68.6737 145.995 68.7015 145.967C68.7293 145.939 68.7667 145.924 68.8055 145.924H73.3908C73.4295 145.924 73.4669 145.939 73.4947 145.967C73.5225 145.995 73.5383 146.033 73.5383 146.073C73.5383 146.113 73.5225 146.151 73.4947 146.179C73.467 146.206 73.4296 146.222 73.3908 146.222Z" fill="#B3B3B3" stroke="#B3B3B3" stroke-width="1.015"/>
<path d="M357.906 334.897C356.462 326.356 351.924 296.257 351.878 295.958L353.033 295.814C353.033 296.123 357.651 326.212 359.049 334.742L357.906 334.897Z" fill="#121212"/>
<path d="M358.8 341.635H357.615C357.698 331.822 362.546 294.336 365.343 291.771L366.22 292.44C364.359 294.137 358.955 328.188 358.8 341.635Z" fill="#121212"/>
<path d="M359.021 285.257C359.169 283.387 358.73 281.518 357.755 279.866C356.801 278.769 355.911 277.627 355.09 276.446C353.979 274.263 354.745 271.678 354.479 269.274C354.245 267.261 353.267 265.379 351.702 263.933C350.314 262.656 348.526 261.791 347.194 260.463C344.972 258.291 344.395 255.233 343.162 252.517C341.407 248.681 338.365 245.441 334.467 243.254C336.843 247.569 331.435 253.061 333.889 257.335C334.667 258.703 336.11 259.689 336.71 261.127C338.087 264.607 333.512 268.369 334.978 271.809C335.711 273.539 337.743 274.535 338.687 276.164C339.964 278.367 338.964 281.032 339.064 283.517C339.209 286.947 341.519 290.014 344.251 292.388C345.95 293.867 347.849 295.144 349.692 296.482C351.913 298.071 352.824 299.751 354.756 297.186C357.424 293.668 358.905 289.523 359.021 285.257Z" fill="#33A27A"/>
<path d="M361.761 340.287L360.551 340.237C361.677 318.703 356.241 273.462 356.181 273.015L357.391 272.903C357.44 273.36 362.899 318.673 361.761 340.287Z" fill="#121212"/>
<path d="M361.178 285.056C360.511 282.304 360.024 279.322 361.178 276.715C362.468 273.785 365.674 271.711 366.044 268.531C366.298 266.445 365.219 264.36 365.642 262.275C366.065 260.189 367.758 258.823 369.176 257.312C372.399 253.806 374.316 249.324 374.613 244.602C376.782 247.134 378.531 249.988 379.797 253.058C380.908 256.186 380.929 259.856 379.046 262.587C378.506 263.214 378.064 263.917 377.734 264.673C377.1 266.695 378.856 268.593 379.766 270.512C380.303 271.61 380.527 272.832 380.413 274.046C380.3 275.26 379.853 276.421 379.12 277.403C377.28 279.666 373.725 280.531 372.826 283.305C372.598 284.332 372.491 285.381 372.508 286.433C372.315 288.258 371.572 289.984 370.375 291.388C369.177 292.793 367.581 293.813 365.79 294.315C363.611 294.836 363.674 293.981 363.262 292.178C362.701 289.821 361.77 287.475 361.178 285.056Z" fill="#33A27A"/>
<path d="M353.903 265.653C352.301 260.421 351.709 254.953 349.964 249.742C348.519 245.668 346.762 241.698 344.708 237.863L351.599 240.634C353.794 241.513 356.197 242.547 357.239 244.583C359.061 248.129 355.802 252.668 357.711 256.172C358.536 257.31 359.446 258.391 360.432 259.408C362.462 262.086 362.155 265.787 361.036 268.909C360.564 270.243 358.468 277.18 356.647 275.267C355.901 274.492 355.835 271.618 355.549 270.563C355.001 268.889 354.408 267.286 353.903 265.653Z" fill="#33A27A"/>
<path d="M344.708 309.291H371.957L370.046 337.126C369.72 341.947 365.747 345.678 360.971 345.678H355.694C350.917 345.678 346.945 341.947 346.619 337.126L344.708 309.291Z" fill="white"/>
<path d="M360.855 345.678H355.8C350.936 345.678 346.874 341.81 346.528 336.884L344.709 309.84C344.704 309.769 344.715 309.698 344.742 309.631C344.769 309.565 344.811 309.504 344.866 309.453C344.919 309.402 344.983 309.361 345.054 309.333C345.125 309.305 345.201 309.291 345.279 309.291H371.377C371.536 309.293 371.688 309.351 371.801 309.453C371.903 309.561 371.958 309.698 371.957 309.84L370.127 336.884C369.792 341.82 365.731 345.678 360.855 345.678ZM345.892 310.339L347.677 336.803C347.979 341.189 351.549 344.62 355.8 344.62H360.855C365.106 344.62 368.665 341.189 368.978 336.803L370.763 310.339H345.892Z" fill="#121212"/>
<path d="M368.549 318.725H348.116C347.973 318.721 347.838 318.649 347.737 318.523C347.637 318.398 347.579 318.228 347.576 318.051C347.576 317.872 347.633 317.701 347.734 317.574C347.835 317.448 347.973 317.377 348.116 317.377H368.549C368.692 317.377 368.829 317.448 368.93 317.574C369.032 317.701 369.088 317.872 369.088 318.051C369.086 318.228 369.028 318.398 368.927 318.523C368.827 318.649 368.691 318.721 368.549 318.725Z" fill="#B3B3B3"/>
<path d="M316.232 132.069C316.159 132.159 316.106 132.265 316.076 132.38C316.047 132.494 316.043 132.612 316.064 132.725C316.08 132.816 316.112 132.902 316.159 132.976C316.206 133.051 316.267 133.113 316.337 133.16C316.408 133.206 316.488 133.236 316.572 133.247C316.656 133.257 316.742 133.249 316.825 133.223L333.921 128.163C334.005 128.14 334.085 128.099 334.156 128.042C334.228 127.986 334.29 127.915 334.338 127.834C334.386 127.752 334.419 127.663 334.437 127.569C334.454 127.476 334.454 127.381 334.438 127.291C334.423 127.198 334.391 127.112 334.344 127.036C334.298 126.96 334.238 126.896 334.167 126.847C334.096 126.799 334.016 126.768 333.932 126.755C333.848 126.742 333.761 126.748 333.677 126.772L316.58 131.833C316.448 131.873 316.327 131.955 316.232 132.069Z" fill="#B3B3B3"/>
<path d="M291.013 84.8268C290.922 84.9379 290.862 85.0748 290.841 85.219L287.903 104.406C287.888 104.5 287.888 104.595 287.906 104.685C287.924 104.776 287.959 104.86 288.007 104.933C288.056 105.006 288.119 105.067 288.191 105.111C288.263 105.155 288.344 105.182 288.428 105.191C288.513 105.201 288.6 105.192 288.684 105.164C288.768 105.137 288.848 105.092 288.919 105.031C288.989 104.971 289.049 104.896 289.095 104.812C289.141 104.727 289.172 104.635 289.186 104.54L292.124 85.3529C292.138 85.258 292.135 85.1625 292.115 85.0717C292.096 84.9809 292.06 84.8967 292.009 84.8239C291.959 84.7511 291.895 84.6912 291.821 84.6477C291.748 84.6041 291.667 84.5777 291.582 84.57C291.478 84.558 291.372 84.5753 291.273 84.6201C291.173 84.665 291.084 84.736 291.013 84.8268Z" fill="#B3B3B3"/>
<path d="M312.166 105.933L303.233 116.745C303.112 116.891 303.045 117.081 303.047 117.271C303.049 117.462 303.12 117.638 303.243 117.761C303.367 117.884 303.533 117.944 303.706 117.928C303.879 117.912 304.043 117.821 304.164 117.675L313.098 106.863C313.218 106.716 313.285 106.527 313.283 106.337C313.281 106.146 313.211 105.97 313.087 105.847C312.964 105.724 312.797 105.663 312.625 105.68C312.452 105.696 312.287 105.787 312.166 105.933Z" fill="#B3B3B3"/>
<path d="M72.7526 99.0708L67.2793 104.951L69.0116 112.801L61.7478 109.401L54.8189 113.472L55.8087 105.491L49.7969 100.165L57.672 98.6185L60.8744 91.25L64.7756 98.2828L72.7526 99.0708Z" fill="#E5FCF9"/>
</svg>
