<svg width="400" height="378" viewBox="0 0 400 378" fill="none" xmlns="http://www.w3.org/2000/svg">
<rect x="41.5772" y="76.221" width="159.37" height="261.732" rx="0.944882" fill="white" stroke="black" stroke-width="1.25984" stroke-linejoin="round"/>
<path d="M41.5846 76.536C41.9192 62.3894 53.4918 51.0242 67.7189 51.0242H174.806C189.033 51.0242 200.605 62.3894 200.94 76.536H41.5846Z" fill="white" stroke="black" stroke-width="1.25984"/>
<path d="M125.868 65.8964H107.144C106.978 65.8964 106.818 65.8304 106.701 65.7128C106.583 65.5952 106.517 65.4357 106.517 65.2694C106.517 65.1031 106.583 64.9436 106.701 64.826C106.818 64.7084 106.978 64.6423 107.144 64.6423H125.868C126.034 64.6423 126.194 64.7084 126.311 64.826C126.429 64.9436 126.495 65.1031 126.495 65.2694C126.495 65.4357 126.429 65.5952 126.311 65.7128C126.194 65.8304 126.034 65.8964 125.868 65.8964Z" fill="#231F20" stroke="#231F20" stroke-width="0.532555"/>
<path d="M134.406 65.8962H130.13C129.964 65.8962 129.804 65.8301 129.687 65.7125C129.569 65.5949 129.503 65.4354 129.503 65.2691C129.506 65.1038 129.573 64.9462 129.69 64.8293C129.807 64.7124 129.965 64.6453 130.13 64.6421H134.406C134.573 64.6421 134.732 64.7082 134.85 64.8257C134.967 64.9433 135.034 65.1028 135.034 65.2691C135.034 65.4354 134.967 65.5949 134.85 65.7125C134.732 65.8301 134.573 65.8962 134.406 65.8962Z" fill="#231F20" stroke="#231F20" stroke-width="0.532555"/>
<rect x="118.901" y="101.576" width="69.2913" height="88.189" rx="0.787402" fill="#FFF4CB" stroke="#FFB43C" stroke-width="1.5748" stroke-linejoin="round"/>
<rect x="60.6331" y="214.962" width="40.9449" height="80.315" rx="0.787402" stroke="#D1D3D4" stroke-width="1.5748" stroke-linejoin="round"/>
<rect x="118.901" y="214.962" width="69.2913" height="80.315" rx="0.787402" stroke="#D1D3D4" stroke-width="1.5748" stroke-linejoin="round"/>
<path d="M241.711 126.207C241.711 126.207 235.779 139.826 237.522 141.256C239.266 142.686 243.793 141.607 243.793 141.607" fill="white"/>
<path d="M240.532 142.635C239.334 142.718 238.141 142.41 237.133 141.757C235.289 140.29 238.851 131.26 241.146 126.006C241.223 125.872 241.347 125.771 241.494 125.723C241.641 125.675 241.8 125.683 241.941 125.745C242.083 125.807 242.196 125.919 242.26 126.06C242.324 126.201 242.334 126.36 242.287 126.507C239.277 133.443 237.271 139.976 237.923 140.792C239.177 141.77 242.488 141.281 243.667 141.005C243.748 140.986 243.831 140.984 243.913 140.998C243.994 141.012 244.072 141.042 244.142 141.086C244.212 141.131 244.273 141.188 244.32 141.256C244.368 141.324 244.402 141.401 244.419 141.481C244.457 141.643 244.429 141.812 244.342 141.953C244.256 142.094 244.116 142.195 243.955 142.234C242.831 142.485 241.684 142.619 240.532 142.635Z" fill="#231F20"/>
<path d="M261.423 164.217L257.975 156.994C257.975 156.994 252.319 161.082 246.349 151.977C240.38 142.873 239.125 107.695 239.125 107.695C239.125 107.695 254.827 129.717 259.191 126.18C258.313 119.822 261.913 115.796 266.427 123.672C269.964 129.855 263.079 133.555 263.079 133.555L268.911 155.401" fill="white"/>
<path d="M261.425 164.846C261.308 164.846 261.192 164.813 261.093 164.751C260.993 164.689 260.913 164.6 260.861 164.494L257.763 157.873C256.438 158.494 254.95 158.683 253.512 158.412C250.778 157.91 248.207 155.904 245.887 152.317C239.892 143.162 238.613 109.151 238.563 107.708C238.558 107.574 238.598 107.441 238.674 107.331C238.751 107.22 238.862 107.137 238.989 107.094C239.117 107.05 239.255 107.048 239.384 107.088C239.513 107.129 239.625 107.21 239.704 107.32C243.241 112.336 253.399 125.278 257.864 125.906C258.115 125.965 258.377 125.965 258.629 125.906C258.227 122.319 259.18 119.522 261.062 118.882C262.127 118.519 264.335 118.632 267.094 123.447C267.606 124.26 267.944 125.169 268.089 126.119C268.234 127.068 268.181 128.037 267.934 128.966C267.213 131.05 265.796 132.821 263.921 133.982L269.64 155.302C269.661 155.384 269.666 155.47 269.654 155.554C269.643 155.638 269.614 155.72 269.571 155.793C269.528 155.866 269.471 155.93 269.403 155.982C269.335 156.033 269.258 156.07 269.176 156.092C269.093 156.113 269.007 156.118 268.923 156.107C268.839 156.095 268.758 156.067 268.684 156.023C268.611 155.98 268.547 155.923 268.496 155.855C268.444 155.787 268.407 155.71 268.385 155.628L262.541 133.781C262.507 133.644 262.52 133.5 262.576 133.37C262.633 133.241 262.731 133.134 262.855 133.066C264.619 132.069 265.977 130.485 266.692 128.589C266.888 127.823 266.925 127.025 266.799 126.244C266.674 125.463 266.39 124.716 265.965 124.049C264.297 121.14 262.604 119.635 261.425 120.049C260.246 120.463 259.406 122.682 259.883 126.119C259.901 126.226 259.889 126.337 259.85 126.438C259.81 126.54 259.743 126.629 259.657 126.696C259.376 126.915 259.052 127.072 258.706 127.156C258.36 127.241 258 127.25 257.65 127.185C252.747 126.507 243.266 114.33 239.867 109.765C240.256 117.415 241.924 144.065 246.903 151.665C249.022 154.9 251.305 156.769 253.675 157.221C255.037 157.503 256.456 157.251 257.638 156.518C257.714 156.468 257.799 156.434 257.889 156.42C257.979 156.405 258.071 156.41 258.159 156.434C258.246 156.457 258.328 156.499 258.398 156.557C258.469 156.615 258.526 156.687 258.566 156.769L262.015 163.993C262.051 164.066 262.072 164.145 262.077 164.227C262.082 164.308 262.071 164.39 262.044 164.467C262.017 164.544 261.975 164.615 261.921 164.676C261.866 164.736 261.8 164.786 261.726 164.82C261.63 164.857 261.526 164.865 261.425 164.846Z" fill="#231F20"/>
<path d="M245.886 129.413C246.533 129.341 246.89 127.771 246.684 125.905C246.477 124.039 245.786 122.585 245.139 122.657C244.491 122.728 244.134 124.299 244.34 126.164C244.547 128.03 245.238 129.484 245.886 129.413Z" fill="#231F20"/>
<path d="M329.398 215.26C329.316 215.266 329.233 215.255 329.155 215.229C329.077 215.203 329.004 215.161 328.942 215.107C328.816 214.998 328.739 214.843 328.727 214.677C328.716 214.511 328.771 214.346 328.88 214.221C328.989 214.095 329.144 214.018 329.311 214.006C343.482 212.2 355.647 201.302 357.49 188.635C358.305 183.293 357.49 177.348 355.183 170.614C353.279 164.688 350.093 159.254 345.852 154.699C339.13 147.877 330 144.666 321.184 141.481C316.645 139.957 312.194 138.182 307.853 136.163C297.594 131.147 293.669 123.246 289.518 114.844C287.675 110.949 285.581 107.179 283.247 103.557C281.207 100.402 278.559 97.6838 275.459 95.5613C272.358 93.4387 268.867 91.9538 265.187 91.193C261.508 90.4321 257.714 90.4104 254.026 91.1292C250.338 91.848 246.83 93.2929 243.705 95.3799L242.514 96.17C241.217 97.097 239.826 97.8832 238.363 98.5152C237.746 98.744 237.118 98.9407 236.482 99.1046C235.942 99.2676 235.403 99.4181 234.876 99.6062C232.72 100.393 230.865 101.839 229.576 103.738C228.287 105.638 227.628 107.895 227.693 110.19C227.759 112.485 228.544 114.701 229.939 116.525C231.334 118.348 233.268 119.686 235.466 120.349C235.624 120.401 235.756 120.513 235.833 120.66C235.91 120.808 235.927 120.98 235.88 121.139C235.83 121.297 235.721 121.428 235.576 121.506C235.43 121.583 235.26 121.6 235.102 121.553C232.656 120.809 230.506 119.316 228.954 117.284C227.403 115.252 226.529 112.785 226.455 110.229C226.382 107.674 227.113 105.16 228.545 103.042C229.977 100.925 232.038 99.3105 234.437 98.4274C235.002 98.2267 235.566 98.0637 236.143 97.9006C236.742 97.7427 237.332 97.5543 237.911 97.3363C239.29 96.75 240.599 96.0096 241.812 95.1291L243.066 94.3264C246.325 92.1466 249.985 90.637 253.834 89.8855C257.682 89.1341 261.642 89.1558 265.482 89.9495C269.322 90.7432 272.965 92.2929 276.2 94.5084C279.436 96.7239 282.198 99.561 284.326 102.854C286.696 106.537 288.824 110.37 290.697 114.329C294.923 122.832 298.572 130.181 308.455 135.022C312.751 137.023 317.155 138.782 321.648 140.289C330.602 143.475 339.87 146.786 346.793 153.809C351.158 158.505 354.427 164.112 356.362 170.225C358.795 177.198 359.572 183.293 358.732 188.848C356.75 202.042 344.172 213.404 329.474 215.285L329.398 215.26Z" fill="#231F20"/>
<path d="M257.409 199.797C257.409 199.797 243.965 201.44 216.375 181.073C188.785 160.707 179.592 124.977 177.861 123.008C176.131 121.039 175.353 121.027 172.845 120.651C171.347 120.396 169.92 119.829 168.656 118.986C167.392 118.143 166.32 117.044 165.508 115.759C165.303 115.484 165.193 115.15 165.195 114.806C165.268 114.538 165.434 114.305 165.664 114.148C165.894 113.992 166.173 113.923 166.449 113.954C167.013 114.059 167.553 114.267 168.042 114.568C169.087 115.081 170.227 115.371 171.39 115.421C171.776 115.461 172.166 115.396 172.519 115.233C172.808 115.02 173.036 114.736 173.181 114.409C173.326 114.081 173.383 113.721 173.347 113.364C173.347 111.032 171.867 106.692 168.731 108.147C168.207 108.398 167.774 108.805 167.491 109.313C167.208 109.821 167.089 110.403 167.151 110.981C167.234 111.26 167.234 111.556 167.151 111.834C166.976 112.185 166.499 112.261 166.098 112.235C165.571 112.194 165.058 112.046 164.591 111.799C164.123 111.552 163.711 111.212 163.38 110.8C163.049 110.389 162.806 109.913 162.665 109.404C162.524 108.894 162.489 108.362 162.562 107.838C162.635 107.315 162.814 106.812 163.088 106.36C163.363 105.908 163.727 105.518 164.158 105.212C164.589 104.906 165.078 104.691 165.595 104.582C166.112 104.472 166.646 104.469 167.164 104.573L163.038 103.758C162.118 103.638 161.23 103.336 160.429 102.867C160.033 102.628 159.714 102.28 159.512 101.864C159.309 101.447 159.231 100.981 159.288 100.522C159.394 100.05 159.628 99.6154 159.965 99.268C161.596 97.4746 164.229 97.0984 166.637 96.8475C170.512 96.4337 174.525 96.0825 178.263 97.2112C185.787 99.4812 189.55 105.426 193.312 111.897C205.188 132.376 222.558 149.871 243.539 160.945C252.982 165.961 263.605 170.288 274.265 169.423" fill="white"/>
<path d="M256.508 200.462C252.971 200.462 239.69 199.107 215.938 181.575C193.251 164.795 182.892 137.619 178.992 127.335C178.538 125.997 177.998 124.69 177.374 123.422C175.919 121.767 175.229 121.654 172.959 121.29H172.796C171.195 121.029 169.668 120.43 168.317 119.532C166.965 118.635 165.82 117.46 164.958 116.086C164.673 115.694 164.536 115.214 164.569 114.731C164.658 114.293 164.909 113.905 165.272 113.644C165.635 113.384 166.083 113.27 166.526 113.327C167.081 113.401 167.614 113.589 168.094 113.878L168.344 114.004C169.315 114.48 170.374 114.749 171.455 114.794C171.722 114.827 171.994 114.792 172.245 114.694C172.709 114.43 172.746 113.615 172.746 113.364C172.746 111.734 172.031 109.502 170.853 108.749C170.576 108.582 170.26 108.494 169.937 108.494C169.614 108.494 169.298 108.582 169.022 108.749C168.614 108.944 168.276 109.258 168.052 109.65C167.828 110.043 167.728 110.494 167.767 110.944V111.069C167.85 111.434 167.814 111.816 167.667 112.16C167.497 112.437 167.245 112.656 166.947 112.786C166.649 112.916 166.318 112.951 165.999 112.888C165.396 112.829 164.811 112.648 164.28 112.354C163.749 112.061 163.285 111.662 162.914 111.182C162.519 110.719 162.226 110.178 162.055 109.594C161.884 109.01 161.839 108.396 161.922 107.793C162.004 107.191 162.214 106.612 162.536 106.096C162.859 105.58 163.287 105.138 163.792 104.799L164.068 104.623L162.814 104.36C161.812 104.223 160.848 103.886 159.979 103.369C159.498 103.041 159.12 102.583 158.891 102.047C158.662 101.511 158.592 100.921 158.688 100.347C158.825 99.7804 159.111 99.261 159.515 98.8416C161.271 96.9229 163.968 96.4965 166.576 96.2206C170.865 95.7691 174.715 95.4806 178.465 96.6093C185.99 98.8793 189.752 104.485 193.853 111.583C205.602 132.22 222.92 149.135 243.829 160.393C252.131 164.783 263.092 169.686 274.216 168.796C274.298 168.789 274.38 168.798 274.458 168.824C274.536 168.849 274.608 168.89 274.67 168.944C274.732 168.998 274.782 169.063 274.819 169.137C274.855 169.211 274.876 169.291 274.881 169.373C274.889 169.454 274.881 169.537 274.858 169.616C274.834 169.694 274.794 169.767 274.742 169.83C274.689 169.894 274.624 169.946 274.551 169.983C274.478 170.021 274.398 170.044 274.316 170.05C262.866 170.978 251.742 165.974 243.252 161.509C222.131 150.144 204.634 133.064 192.762 112.223C188.786 105.363 185.237 99.9453 178.101 97.8133C174.577 96.7598 170.865 97.0232 166.714 97.4621C164.331 97.7129 161.898 98.0892 160.443 99.6944C160.194 99.9457 160.013 100.257 159.917 100.597C159.891 100.933 159.959 101.27 160.114 101.569C160.269 101.868 160.505 102.118 160.795 102.29C161.527 102.716 162.337 102.989 163.177 103.093L167.354 103.958C167.434 103.973 167.51 104.004 167.578 104.049C167.647 104.094 167.705 104.152 167.751 104.22C167.796 104.287 167.828 104.363 167.844 104.443C167.859 104.523 167.859 104.606 167.843 104.686C167.806 104.848 167.71 104.99 167.572 105.083C167.435 105.177 167.267 105.214 167.103 105.187C166.246 105.083 165.382 105.307 164.683 105.814C163.985 106.321 163.505 107.074 163.34 107.921C163.26 108.786 163.512 109.649 164.046 110.334C164.579 111.019 165.354 111.475 166.212 111.608C166.366 111.63 166.522 111.608 166.664 111.546C166.674 111.437 166.674 111.328 166.664 111.22V111.057C166.572 110.345 166.704 109.622 167.041 108.989C167.378 108.355 167.904 107.842 168.545 107.52C169.017 107.272 169.546 107.154 170.079 107.176C170.612 107.198 171.13 107.36 171.58 107.645C173.386 108.812 174.088 111.746 174.088 113.327C174.135 113.795 174.052 114.267 173.848 114.692C173.645 115.117 173.329 115.477 172.934 115.734C172.482 115.952 171.979 116.043 171.48 115.998C170.23 115.94 169.005 115.629 167.88 115.082L167.604 114.944C167.272 114.735 166.901 114.594 166.513 114.531C166.237 114.531 165.924 114.668 165.899 114.832C165.874 114.995 166.049 115.27 166.112 115.383C166.863 116.604 167.863 117.651 169.048 118.457C170.232 119.264 171.574 119.81 172.985 120.061H173.148C175.493 120.437 176.559 120.6 178.314 122.569C179.085 123.933 179.708 125.375 180.171 126.871C184.033 137.017 194.292 163.98 216.728 180.534C243.716 200.462 257.21 199.158 257.348 199.145C257.43 199.135 257.513 199.141 257.592 199.163C257.672 199.185 257.746 199.223 257.81 199.275C257.874 199.326 257.928 199.39 257.967 199.463C258.006 199.535 258.03 199.615 258.038 199.697C258.049 199.778 258.043 199.86 258.021 199.938C258 200.017 257.963 200.09 257.913 200.155C257.863 200.219 257.8 200.272 257.729 200.312C257.658 200.352 257.58 200.377 257.499 200.387C257.171 200.436 256.84 200.461 256.508 200.462Z" fill="#231F20"/>
<path d="M335.079 259.906C335.079 259.906 352.812 281.589 352.323 298.344C351.834 315.099 347.883 318.548 347.883 318.548L352.16 340.683L260.271 340.908L265.489 282.567L335.079 259.906Z" fill="#231F20"/>
<path d="M260.27 341.536C260.183 341.537 260.097 341.519 260.018 341.484C259.938 341.45 259.867 341.399 259.808 341.335C259.749 341.272 259.704 341.197 259.675 341.115C259.647 341.033 259.636 340.946 259.643 340.859L264.872 282.518C264.88 282.395 264.925 282.278 265.001 282.182C265.077 282.085 265.181 282.014 265.299 281.979L334.876 259.267C334.995 259.227 335.123 259.224 335.244 259.257C335.365 259.291 335.473 259.36 335.554 259.455C336.281 260.358 353.437 281.515 352.936 298.332C352.509 312.88 349.474 317.595 348.559 318.712L352.773 340.533C352.792 340.624 352.789 340.717 352.765 340.807C352.741 340.896 352.696 340.978 352.635 341.047C352.578 341.12 352.505 341.178 352.423 341.22C352.341 341.261 352.25 341.283 352.158 341.286L260.27 341.536ZM266.051 283.095L260.922 340.332L351.406 340.107L347.267 318.712C347.249 318.604 347.257 318.494 347.292 318.391C347.328 318.289 347.388 318.196 347.468 318.122C347.468 318.122 351.23 314.473 351.694 298.37C352.146 283.158 337.059 263.468 334.851 260.747L266.051 283.095Z" fill="#231F20"/>
<path d="M260.045 287.999C260.045 287.999 257.763 285.604 255.856 252.332C253.95 219.061 236.506 219.387 243.177 185.664C249.172 155.302 270.429 153.672 284.099 155.302C313.633 158.814 306.46 195.358 340.947 261.901C340.985 261.876 319.352 305.105 260.045 287.999Z" fill="#9DE3B9"/>
<path d="M255.605 198.317C256.595 198.317 262.991 226.058 262.138 230.761C261.185 235.965 246.362 234.812 242.913 234.787C238.047 234.787 223.838 236.216 219.75 233.645C216.276 231.463 212.225 229.03 209.453 226.02C207.158 223.587 205.428 220.753 203.032 218.295C202.091 217.222 200.986 216.304 199.759 215.574C198.564 215.021 197.298 214.637 195.997 214.432C195.342 214.219 194.633 214.255 194.003 214.533C193.716 214.738 193.493 215.02 193.358 215.345C193.223 215.671 193.181 216.028 193.238 216.376C193.363 217.07 193.618 217.734 193.99 218.333C194.805 219.838 199.17 225.857 198.192 227.35C197.213 228.842 190.077 227.199 188.347 227.024C183.682 226.56 182.54 230.648 183.33 234.473C185.174 242.7 195.646 246.4 202.493 249.447C210.995 253.171 219.847 256.04 228.917 258.013C242.56 260.888 256.439 262.5 270.378 262.828C279.52 263.167 294.206 263.317 299.41 253.962C309.531 235.727 292.187 190.554 292.187 190.554" fill="white"/>
<path d="M275.623 263.619C273.666 263.619 271.86 263.557 270.406 263.507C256.428 263.181 242.511 261.56 228.832 258.666C219.705 256.67 210.798 253.771 202.245 250.012L200.1 249.084C193.14 246.074 184.474 242.325 182.731 234.612C182.393 233.483 182.318 232.291 182.511 231.128C182.704 229.965 183.162 228.862 183.847 227.902C184.416 227.297 185.127 226.843 185.915 226.581C186.703 226.318 187.544 226.255 188.362 226.398C188.738 226.398 189.378 226.548 190.143 226.686C191.861 226.974 197.065 227.94 197.667 227.012C198.269 226.084 195.347 221.67 194.407 220.202C193.98 219.525 193.629 218.948 193.441 218.635C193.031 217.965 192.75 217.225 192.613 216.452C192.53 215.976 192.587 215.486 192.776 215.041C192.965 214.596 193.279 214.215 193.679 213.944C194.442 213.574 195.317 213.511 196.125 213.769C197.566 213.918 198.963 214.352 200.236 215.045C201.508 215.738 202.63 216.677 203.537 217.807C204.774 219.114 205.93 220.496 206.998 221.945C207.924 223.194 208.912 224.395 209.958 225.545C212.841 228.3 216.05 230.692 219.514 232.668L220.141 233.069C223.113 234.938 232.243 234.524 238.288 234.261C240.194 234.173 241.825 234.11 242.978 234.11H244.584C249.023 234.261 260.887 234.637 261.577 230.561C262.367 226.197 256.498 200.701 255.306 198.744C255.197 198.668 255.115 198.56 255.072 198.434C255.029 198.309 255.027 198.173 255.066 198.046C255.105 197.919 255.183 197.808 255.289 197.728C255.396 197.649 255.525 197.605 255.657 197.603C255.881 197.629 256.089 197.731 256.247 197.892C257.601 199.522 263.684 225.971 262.806 230.787C261.865 235.929 250.164 235.553 244.546 235.364H242.966C241.85 235.364 240.232 235.427 238.351 235.515C231.779 235.803 222.775 236.205 219.539 234.123L218.912 233.734C215.352 231.704 212.058 229.239 209.105 226.398C208.027 225.225 207.014 223.994 206.07 222.71C205.023 221.305 203.897 219.961 202.696 218.685C201.801 217.663 200.752 216.787 199.586 216.089C198.429 215.551 197.2 215.183 195.937 214.998C195.438 214.82 194.893 214.82 194.394 214.998C194.212 215.146 194.073 215.341 193.991 215.561C193.91 215.782 193.889 216.02 193.93 216.252C194.044 216.866 194.274 217.454 194.607 217.982C194.783 218.309 195.122 218.835 195.535 219.475C197.843 223.099 199.687 226.209 198.784 227.639C197.881 229.069 194.281 228.605 190.005 227.865C189.277 227.739 188.676 227.639 188.312 227.601C187.693 227.485 187.054 227.523 186.453 227.711C185.852 227.899 185.306 228.232 184.863 228.68C184.309 229.49 183.946 230.416 183.803 231.388C183.66 232.359 183.739 233.35 184.035 234.286C185.628 241.372 193.968 244.983 200.677 247.88L202.834 248.821C211.307 252.544 220.129 255.414 229.171 257.387C242.786 260.275 256.641 261.887 270.556 262.202C278.081 262.466 293.807 263.03 299.024 253.637C308.882 235.879 291.926 191.22 291.75 190.768C291.72 190.691 291.706 190.608 291.708 190.525C291.71 190.442 291.728 190.361 291.762 190.285C291.796 190.209 291.844 190.141 291.905 190.084C291.965 190.027 292.036 189.982 292.114 189.953C292.271 189.896 292.443 189.901 292.596 189.969C292.748 190.037 292.868 190.162 292.929 190.317C293.632 192.173 310.261 235.979 300.115 254.276C295.488 262.453 283.975 263.619 275.623 263.619Z" fill="#231F20"/>
<path d="M290.595 184.648C290.475 184.65 290.358 184.617 290.257 184.552C290.157 184.487 290.078 184.394 290.031 184.284L281.816 166.551C281.78 166.476 281.76 166.395 281.755 166.312C281.751 166.229 281.763 166.146 281.791 166.068C281.819 165.99 281.862 165.918 281.918 165.857C281.974 165.795 282.042 165.746 282.117 165.711C282.271 165.646 282.444 165.642 282.6 165.7C282.756 165.758 282.884 165.874 282.957 166.024L291.159 183.757C291.195 183.832 291.216 183.913 291.22 183.996C291.225 184.079 291.212 184.162 291.184 184.24C291.156 184.318 291.113 184.39 291.057 184.452C291.001 184.513 290.934 184.563 290.858 184.598C290.775 184.632 290.685 184.649 290.595 184.648Z" fill="#231F20"/>
<path d="M244.745 147.125C244.55 147.146 244.352 147.146 244.156 147.125C244.074 147.115 243.994 147.09 243.922 147.049C243.85 147.008 243.787 146.954 243.737 146.888C243.687 146.823 243.65 146.748 243.629 146.667C243.609 146.587 243.604 146.504 243.617 146.422C243.642 146.259 243.729 146.112 243.859 146.012C243.99 145.911 244.155 145.865 244.319 145.883C244.62 145.883 251.555 146.711 253.863 136.828C253.901 136.667 254.002 136.528 254.143 136.441C254.284 136.354 254.454 136.327 254.615 136.364C254.696 136.382 254.772 136.416 254.839 136.463C254.907 136.511 254.964 136.572 255.007 136.642C255.05 136.712 255.079 136.791 255.091 136.872C255.104 136.954 255.1 137.037 255.079 137.117C252.922 146.397 246.702 147.125 244.745 147.125Z" fill="#231F20"/>
<path d="M310.147 337.348C310.023 337.346 309.903 337.303 309.805 337.226C309.708 337.149 309.638 337.042 309.608 336.921L300.19 295.536C300.159 295.393 300.185 295.244 300.263 295.12C300.34 294.996 300.462 294.907 300.603 294.871C300.748 294.841 300.899 294.869 301.023 294.949C301.147 295.028 301.235 295.154 301.268 295.298L310.687 336.683C310.705 336.754 310.709 336.828 310.698 336.9C310.687 336.973 310.661 337.042 310.623 337.104C310.584 337.167 310.533 337.22 310.473 337.262C310.412 337.304 310.344 337.333 310.273 337.348H310.147Z" fill="white"/>
<path d="M307.324 306.284C307.191 306.281 307.062 306.233 306.961 306.146C306.904 306.099 306.857 306.041 306.823 305.975C306.788 305.91 306.768 305.838 306.762 305.764C306.756 305.69 306.765 305.616 306.789 305.546C306.812 305.476 306.849 305.411 306.898 305.356C306.961 305.293 312.378 298.872 311.475 292.138C311.466 292.065 311.472 291.992 311.491 291.921C311.51 291.851 311.543 291.785 311.588 291.727C311.633 291.67 311.689 291.621 311.752 291.585C311.816 291.549 311.886 291.526 311.958 291.517C312.031 291.508 312.104 291.513 312.175 291.532C312.245 291.552 312.311 291.585 312.369 291.63C312.426 291.674 312.475 291.73 312.511 291.794C312.547 291.857 312.57 291.927 312.579 292C313.545 299.223 307.976 305.795 307.738 306.083C307.688 306.144 307.625 306.194 307.553 306.229C307.482 306.263 307.404 306.282 307.324 306.284Z" fill="white"/>
<path fill-rule="evenodd" clip-rule="evenodd" d="M318.831 78.6022C341.17 77.9854 359.008 65.2139 359.008 49.5492C359.008 33.4908 340.263 20.4729 317.138 20.4729C294.014 20.4729 275.269 33.4908 275.269 49.5492C275.269 63.3321 289.078 74.8751 307.613 77.8697L313.649 87.93L318.831 78.6022Z" fill="white"/>
<path d="M318.831 78.6022L318.807 77.715C318.493 77.7236 318.207 77.897 318.055 78.1712L318.831 78.6022ZM307.613 77.8697L308.374 77.4131C308.239 77.1888 308.013 77.0352 307.754 76.9935L307.613 77.8697ZM313.649 87.93L312.888 88.3867C313.051 88.6586 313.347 88.8228 313.664 88.8175C313.981 88.8122 314.271 88.6382 314.425 88.3611L313.649 87.93ZM358.121 49.5492C358.121 57.0189 353.869 63.8863 346.778 68.9987C339.688 74.1096 329.822 77.4108 318.807 77.715L318.856 79.4895C330.179 79.1768 340.402 75.7839 347.816 70.4387C355.228 65.0949 359.896 57.7443 359.896 49.5492H358.121ZM317.138 21.3605C328.542 21.3605 338.828 24.5719 346.239 29.7182C353.653 34.8668 358.121 41.8924 358.121 49.5492H359.896C359.896 41.1477 354.991 33.6351 347.251 28.2601C339.508 22.8829 328.859 19.5853 317.138 19.5853V21.3605ZM276.156 49.5492C276.156 41.8924 280.624 34.8668 288.038 29.7182C295.449 24.5719 305.735 21.3605 317.138 21.3605V19.5853C305.418 19.5853 294.769 22.8829 287.026 28.2601C279.286 33.6351 274.381 41.1477 274.381 49.5492H276.156ZM307.754 76.9935C289.395 74.0272 276.156 62.6809 276.156 49.5492H274.381C274.381 63.9833 288.762 75.7231 307.471 78.746L307.754 76.9935ZM314.41 87.4734L308.374 77.4131L306.852 78.3264L312.888 88.3867L314.41 87.4734ZM318.055 78.1712L312.873 87.499L314.425 88.3611L319.607 79.0333L318.055 78.1712Z" fill="#121212"/>
<path d="M313.576 65.7563C313.576 65.7563 282.788 34.2244 311.04 44.8473C320.322 48.3284 309.075 52.8089 309.075 52.8089C309.075 52.8089 312.727 39.8616 323.416 37.874C334.094 35.8864 323.416 54.0554 313.576 65.7563Z" fill="#FFB43C"/>
<rect x="61.4199" y="303.938" width="39.3701" height="12.5984" rx="6.29921" fill="#D1D3D4"/>
<rect x="61.4199" y="177.953" width="39.3701" height="12.5984" rx="6.29921" fill="#D1D3D4"/>
<rect x="133.861" y="303.938" width="39.3701" height="12.5984" rx="6.29921" fill="#D1D3D4"/>
<line x1="62.2073" y1="104.725" x2="100.003" y2="104.725" stroke="#D1D3D4" stroke-width="1.5748" stroke-linecap="round"/>
<line x1="62.2073" y1="118.898" x2="100.003" y2="118.898" stroke="#D1D3D4" stroke-width="1.5748" stroke-linecap="round"/>
<line x1="62.2068" y1="133.072" x2="100.002" y2="133.072" stroke="#D1D3D4" stroke-width="1.5748" stroke-linecap="round"/>
<line x1="62.2073" y1="147.245" x2="100.003" y2="147.245" stroke="#D1D3D4" stroke-width="1.5748" stroke-linecap="round"/>
<line x1="62.2073" y1="161.418" x2="100.003" y2="161.418" stroke="#D1D3D4" stroke-width="1.5748" stroke-linecap="round"/>
</svg>
